<?xml version="1.0" encoding="utf-8"?>
<!-- Generator: Adobe Illustrator 26.0.3, SVG Export Plug-In . SVG Version: 6.00 Build 0)  -->
<svg version="1.1" id="Camada_1" xmlns="http://www.w3.org/2000/svg" xmlns:xlink="http://www.w3.org/1999/xlink" x="0px" y="0px"
	 viewBox="0 0 288 192.8" style="enable-background:new 0 0 288 192.8;" xml:space="preserve">
<style type="text/css">
	.st0{fill:#0D0B08;}
	.st1{fill:#FECE66;}
	.st2{fill:#FEBB2B;}
	.st3{fill:#FEFEFE;}
	.st4{fill:#F5B52A;}
	.st5{fill:#BCF1FE;}
	.st6{fill:#FAA135;}
	.st7{fill:#85DDF3;}
</style>
<g>
	<path class="st0" d="M177.5,192.7c-27.4,0-54.8,0-82.2,0c-11.8,0-17.4-5.6-17.4-17.4c0-49.2,0-98.4,0-147.6
		c0-11.5,5.7-17.1,17.2-17.1c17.5,0,35,0.1,52.6,0c5.2,0,9.6,1.6,13.2,5.4c5,5.2,10.3,10.2,15.4,15.5c1.7,1.8,3.5,2.6,6.1,2.6
		c26-0.1,51.9-0.1,77.9-0.1c11.5,0,17.2,5.6,17.2,17.2c0,41.5,0,83.1,0,124.6c0,11.2-5.8,16.9-17,17
		C232.8,192.7,205.1,192.7,177.5,192.7z M250.9,57.2c1.9,0.1,3.9,0,5.8,0.2c2.2,0.2,3.2-0.3,3.2-2.9s-1-3.1-3.2-2.9
		c-1.9,0.2-3.9,0.1-5.8,0.2c-0.6,0-1.3-0.1-1.9-0.1c-50,0-100.1,0-150.1,0c-0.5,0-1,0-1.6,0c-1.3-0.1-1.7,0.5-1.8,1.8
		c-0.3,2.8,0.3,4.1,3.7,4c2.9-0.1,6.8-1.6,8.2,2.9c-0.7,2.3-2.3,3.3-4.7,3c-0.8-0.1-1.6,0.1-2.3,0c-4.2-0.8-5.3,1.1-4.9,5
		c0.3,2.9,0.2,6,0,8.9c-0.2,2.6,0.5,3.5,3.3,3.5c25-0.1,50.1-0.1,75.1-0.1c1.1,0,2.3,0.3,3.3-0.7c5.3-5.4,10.7-10.7,16.6-16.6
		c-2.2,0-3.4,0-4.7,0c-23.6,0-47.2,0-70.8,0c-2.4,0-4.8,0.1-5.5-3c0.7-3.4,3.3-3,5.8-3c40.2,0,80.4,0,120.6,0
		C243.2,57.3,247,57.2,250.9,57.2z M261.9,45.5c2.8,0.2,4.2,1.7,3.9,4.6c-0.1,1.5,0,3.1,0,4.7c0,2.2,2.9,5.2,4.8,4.6
		c2-0.6,0.8-2.6,1-4c0.2-1.4,0-2.8,0-4.3c0-8.6-3.2-11.5-12-11c-1.4-0.1-2.8-0.1-4.3-0.1c-24.9,0-49.8,0-74.8,0
		c-2.8,0-4.9-0.8-6.8-2.9c-5.4-5.6-11.1-11-16.4-16.6c-2.7-2.8-5.7-4.1-9.6-4c-17.7,0.1-35.3,0.1-53,0.1c-7.8,0-10.7,2.9-10.7,10.8
		c0,17.3,0,34.5,0,51.8c0,1.2-0.5,2.5,0.6,3.6c5.2-2,5.2-2,5.2-7.1c0-7.9,0-15.8,0-23.8c0-6.2,0.2-6.3,6.4-6.3
		c53.7,0,107.5,0,161.2,0C258.7,45.6,260.3,45.5,261.9,45.5z M262.6,63.5c-19,0-37.9-0.1-56.9-0.1c-2.8,0-4.9,1.3-6.8,3.2
		c-5.8,5.8-11.6,11.5-17.3,17.4c-2,2-4.1,2.8-6.9,2.8c-26.6-0.1-53.2-0.1-79.8,0c-8.3,0-11.1,2.8-11.1,11.3c0,25.7,0,51.4,0,77.1
		c0,8.9,2.7,11.5,11.6,11.5c53.4,0,106.7,0,160.1,0c1.3,0,2.6-0.1,3.9-0.2c8.9,0.6,12.1-2.4,12.1-11.3c0-33.5,0-66.9,0-100.4
		c0-1.2,0-2.3-0.1-3.5C270.9,66.3,267.8,63.6,262.6,63.5z"/>
	<path class="st1" d="M259.5,186.5c-1.3,0.1-2.6,0.2-3.9,0.2c-53.4,0-106.7,0-160.1,0c-8.9,0-11.6-2.7-11.6-11.5
		c0-25.7,0-51.4,0-77.1c0-8.5,2.8-11.3,11.1-11.3c26.6,0,53.2,0,79.8,0c2.8,0,4.9-0.7,6.9-2.8c5.7-5.9,11.5-11.6,17.3-17.4
		c1.9-1.9,4-3.3,6.8-3.2c19,0.1,37.9,0.1,56.9,0.1c0,37.8,0,75.5,0.1,113.3C262.7,180.5,261.8,183.7,259.5,186.5z"/>
	<path class="st2" d="M261.9,45.5c-1.6,0.1-3.1,0.1-4.7,0.1c-53.7,0-107.5,0-161.2,0c-6.2,0-6.4,0.2-6.4,6.3c0,7.9,0,15.8,0,23.8
		c0,5.2,0,5.2-5.2,7.1c-1.1-1-0.6-2.4-0.6-3.6c0-17.3,0-34.5,0-51.8c0-7.9,2.9-10.8,10.7-10.8c17.7,0,35.3,0.1,53-0.1
		c3.9,0,6.9,1.2,9.6,4c5.4,5.6,11,11,16.4,16.6c2,2,4,2.9,6.8,2.9c24.9-0.1,49.8-0.1,74.8,0c1.4,0,2.8,0.1,4.3,0.1
		C260.6,41.8,262,43.3,261.9,45.5z"/>
	<path class="st3" d="M112.9,60.3c0.7,3.1,3,3,5.5,3c23.6,0,47.2,0,70.8,0c1.3,0,2.5,0,4.7,0c-5.9,5.9-11.3,11.3-16.6,16.6
		c-1,1-2.2,0.7-3.3,0.7c-25,0-50.1,0-75.1,0.1c-2.8,0-3.5-0.8-3.3-3.5c0.2-3,0.3-6,0-8.9c-0.4-3.9,0.7-5.8,4.9-5
		c0.8,0.1,1.6,0,2.3,0c2.4,0.2,4-0.7,4.7-3C109.2,60.3,111.1,60.3,112.9,60.3z"/>
	<path class="st4" d="M259.5,186.5c2.3-2.8,3.3-5.9,3.2-9.7c-0.1-37.8-0.1-75.5-0.1-113.3c5.2,0.2,8.3,2.9,8.8,7.8
		c0.1,1.2,0.1,2.3,0.1,3.5c0,33.5,0,66.9,0,100.4C271.6,184.1,268.3,187.1,259.5,186.5z"/>
	<path class="st5" d="M112.9,60.3c-1.8,0-3.7,0-5.5,0c-1.5-4.5-5.3-3-8.2-2.9c-3.3,0.2-3.9-1.2-3.7-4c0.1-1.3,0.5-1.9,1.8-1.8
		c0.5,0,1,0,1.6,0c50,0,100.1,0,150.1,0c0.6,0,1.3,0.1,1.9,0.1c0,1.8,0,3.6,0,5.4c-3.9,0-7.8,0.1-11.7,0.1c-40.2,0-80.4,0-120.6,0
		C116.2,57.3,113.6,56.9,112.9,60.3z"/>
	<path class="st6" d="M261.9,45.5c0.2-2.2-1.2-3.7-2.3-5.3c8.8-0.6,12,2.3,12,11c0,1.4,0.2,2.9,0,4.3c-0.2,1.4,1,3.4-1,4
		c-1.8,0.6-4.7-2.4-4.8-4.6c0-1.6-0.1-3.1,0-4.7C266,47.2,264.7,45.7,261.9,45.5z"/>
	<path class="st7" d="M250.9,57.2c0-1.8,0-3.6,0-5.4c1.9-0.1,3.9,0,5.8-0.2c2.2-0.2,3.2,0.3,3.2,2.9s-1,3.1-3.2,2.9
		C254.8,57.2,252.9,57.2,250.9,57.2z"/>
</g>
</svg>
