<?xml version="1.0" encoding="utf-8"?>
<!-- Generator: Adobe Illustrator 26.0.3, SVG Export Plug-In . SVG Version: 6.00 Build 0)  -->
<svg version="1.1" id="Camada_1" xmlns="http://www.w3.org/2000/svg" xmlns:xlink="http://www.w3.org/1999/xlink" x="0px" y="0px"
	 viewBox="0 0 225 225" style="enable-background:new 0 0 225 225;" xml:space="preserve">
<style type="text/css">
	.st0{fill:#473B6D;}
	.st1{fill:#FFFFFF;}
</style>
<path class="st0" d="M189.9,225H35.1C15.7,225,0,209.3,0,189.9V35.1C0,15.7,15.7,0,35.1,0h154.8C209.3,0,225,15.7,225,35.1v154.8
	C225,209.3,209.3,225,189.9,225z"/>
<path class="st1" d="M206,89c-1.4,0-3,3.5-3,6.4c0,4-2.4,5.6-7.5,4.9c-3.8-0.5-5-0.2-8,2.1c-4.7,3.7-6.5,7.4-6.5,14.1
	c0,6.5,1.7,11,5.4,14.5c3,2.7,6.7,3.1,17.6,1.8c1.8-0.2,3.5-0.4,4.7-0.6c1-0.1,1.8-0.9,1.9-2c0.2-3.1,0.4-9.9,0.4-17.8
	c0-18.2-0.1-19.6-2-21.5C207.9,89.9,206.6,89,206,89z M15.2,104.1c-6.2,10.3-1.5,25.9,8.8,29c7.9,2.4,17-1,17-6.5
	c0-4.4-2.4-5.1-7.6-2.1c-3.9,2.3-5,2.5-7.1,1.6c-2-0.9-2.4-1.7-2.1-4.9l0.1-1.7c0.1-1.1,1-2,2.1-2l6.6-0.1c4.7,0,9.1-0.4,9.7-0.8
	c3.5-2.2-0.8-14.2-6.2-17.6C29.6,94.7,19.6,97.1,15.2,104.1z M50.4,97c-2.1,0-3.7,0.6-4,1.4s1.5,4.5,4,8.1c2.7,4,4.6,7.9,4.6,9.5
	c0,1.7-1.7,4.9-4.5,8.6c-4.7,6-5.6,9-3,10c2.9,1.2,6.5-0.7,9.1-4.6c3.4-5.1,6.4-5.3,9.5-0.8c3,4.5,4.8,5.8,8,5.8
	c3.6,0,4.2-2.2,1.6-5.9c-1.2-1.7-3.5-4.9-5.1-7.2c-4.6-6.3-4.1-8.4,4-19.6c4.2-5.9-3.2-7.4-8.6-1.8c-1.9,1.9-4.1,3.5-4.9,3.5
	c-0.9,0-2.9-1.6-4.4-3.5C54.5,97.7,53.2,97,50.4,97z M82.5,103.1c-6.4,7.7-6.9,15.3-1.5,22.8c4.1,5.5,8,7.4,14.6,6.9
	c9.5-0.8,15.4-7.6,15.4-18c0-6.2-2.1-10.3-7.4-14.3C96.8,95.3,88.2,96.4,82.5,103.1z M118.7,104.9c-3.1,3.7-4.2,8.6-3.3,14.2
	c1.4,9.1,6.7,14.9,13.3,14.9c10.3,0,20.6-8.6,14.4-12c-2.5-1.3-6.1-1.3-6.1,0c0,1.9-4.8,6-7,6c-3.9,0-6-3.5-6-10
	c0-10.5,4.2-15,10.8-11.6c3.8,2,7.1,2,7.8,0.2c0.9-2.3-1.5-5.7-5.1-7.2C130.5,96.5,124.3,98.3,118.7,104.9z M156.8,100.2
	c-5,2.1-6,4-3.1,5.6c1.2,0.7,3,0.4,6.1-1.1c4.4-2.2,4.4-2.2,5.8-0.2c2.7,3.7,1.4,5.8-4.5,7.3c-3,0.7-6.7,2.2-8.2,3.3
	c-4.7,3.3-5.1,11.7-0.8,15.7c1.7,1.7,3.5,1.9,13.7,1.8l9.3-0.2c1.3,0,2.3-1.2,2.1-2.4l0,0c-0.2-1.4-0.6-7.7-1-14
	c-0.8-11.8-1.8-15.2-5.2-17C168,97.4,161.9,97.9,156.8,100.2z M200.1,108.6c2,2.2,2.4,3.6,2.4,8.9c0,7.4-1.4,9.5-6.1,9.5
	c-5.2,0-7.4-2.8-7.4-9.4c0-4.4,0.5-6,2.6-8.5C194.7,105.3,196.9,105.2,200.1,108.6z M28.3,103c4.9,0,6.7,7.3,2.2,9
	c-6,2.3-10.4-3.9-5.3-7.4C26.4,103.7,27.8,103,28.3,103z M102.6,111.8c1.5,7.5-2.1,14.2-7.6,14.2c-3.8,0-6.6-2.8-8-7.9
	c-1.3-4.8,0.4-9.9,4.1-12.5C96.4,101.9,101.1,104.4,102.6,111.8z M166.4,119.2c1.6,2.5-0.4,7.2-3.2,7.6c-4.7,0.7-6.9-4.3-3.5-8
	C161.7,116.6,164.8,116.8,166.4,119.2z"/>
</svg>
