<?xml version="1.0" encoding="utf-8"?>
<!-- Generator: Adobe Illustrator 26.0.3, SVG Export Plug-In . SVG Version: 6.00 Build 0)  -->
<svg version="1.1" id="Camada_1" xmlns="http://www.w3.org/2000/svg" xmlns:xlink="http://www.w3.org/1999/xlink" x="0px" y="0px"
	 viewBox="0 0 225 225" style="enable-background:new 0 0 225 225;" xml:space="preserve">
<style type="text/css">
	.st0{fill:url(#SVGID_1_);}
	.st1{fill:none;}
	.st2{fill-rule:evenodd;clip-rule:evenodd;fill:#FFFFFF;}
</style>
<linearGradient id="SVGID_1_" gradientUnits="userSpaceOnUse" x1="0" y1="112.5" x2="225" y2="112.5">
	<stop  offset="0" style="stop-color:#7400E1"/>
	<stop  offset="1" style="stop-color:#4000BF"/>
</linearGradient>
<path class="st0" d="M178.1,225H46.9C21,225,0,204,0,178.1V46.9C0,21,21,0,46.9,0h131.1C204,0,225,21,225,46.9v131.1
	C225,204,204,225,178.1,225z"/>
<path class="st1" d="M0,0h225v225H0V0z"/>
<g>
	<g>
		<path id="e_00000165930203837223032220000010148043627838570393_" class="st2" d="M21.1,112.6c0,40.5,26.2,74.7,62.5,86.8
			c4.6,0.8,6.3-1.9,6.3-4.3c0-2.2-0.1-9.4-0.1-17c-23,4.2-28.9-5.6-30.7-10.7c-1-2.6-5.5-10.7-9.4-12.9c-3.2-1.7-7.8-5.9-0.1-6.1
			c7.2-0.1,12.3,6.6,14.1,9.4c8.2,13.8,21.4,9.9,26.6,7.5c0.8-5.9,3.2-9.9,5.8-12.2c-20.3-2.3-41.6-10.2-41.6-45.2
			c0-9.9,3.5-18.2,9.4-24.6c-0.9-2.3-4.1-11.7,0.9-24.2c0,0,7.7-2.4,25.1,9.4c7.3-2.1,15.1-3.1,22.9-3.1s15.5,1,22.9,3.1
			c17.5-11.9,25.1-9.4,25.1-9.4c5,12.6,1.8,21.9,0.9,24.2c5.8,6.4,9.4,14.5,9.4,24.6c0,35.1-21.4,42.9-41.7,45.2
			c3.3,2.9,6.2,8.3,6.2,16.9c0,12.2-0.1,22.1-0.1,25.2c0,2.4,1.7,5.3,6.3,4.3c36.1-12.1,62.3-46.4,62.3-86.8
			c0-50.5-40.9-91.5-91.4-91.5S21.1,62,21.1,112.6z"/>
	</g>
	<g>
		<path id="e_00000013896436604820361790000009316355082901755318_" class="st2" d="M21.1,112.6c0,40.5,26.2,74.7,62.5,86.8
			c4.6,0.8,6.3-1.9,6.3-4.3c0-2.2-0.1-9.4-0.1-17c-23,4.2-28.9-5.6-30.7-10.7c-1-2.6-5.5-10.7-9.4-12.9c-3.2-1.7-7.8-5.9-0.1-6.1
			c7.2-0.1,12.3,6.6,14.1,9.4c8.2,13.8,21.4,9.9,26.6,7.5c0.8-5.9,3.2-9.9,5.8-12.2c-20.3-2.3-41.6-10.2-41.6-45.2
			c0-9.9,3.5-18.2,9.4-24.6c-0.9-2.3-4.1-11.7,0.9-24.2c0,0,7.7-2.4,25.1,9.4c7.3-2.1,15.1-3.1,22.9-3.1s15.5,1,22.9,3.1
			c17.5-11.9,25.1-9.4,25.1-9.4c5,12.6,1.8,21.9,0.9,24.2c5.8,6.4,9.4,14.5,9.4,24.6c0,35.1-21.4,42.9-41.7,45.2
			c3.3,2.9,6.2,8.3,6.2,16.9c0,12.2-0.1,22.1-0.1,25.2c0,2.4,1.7,5.3,6.3,4.3c36.1-12.1,62.3-46.4,62.3-86.8
			c0-50.5-40.9-91.5-91.4-91.5S21.1,62,21.1,112.6z"/>
	</g>
	<g>
		<path id="e_00000146458276198088710520000010922397063253030560_" class="st2" d="M21.1,112.6c0,40.5,26.2,74.7,62.5,86.8
			c4.6,0.8,6.3-1.9,6.3-4.3c0-2.2-0.1-9.4-0.1-17c-23,4.2-28.9-5.6-30.7-10.7c-1-2.6-5.5-10.7-9.4-12.9c-3.2-1.7-7.8-5.9-0.1-6.1
			c7.2-0.1,12.3,6.6,14.1,9.4c8.2,13.8,21.4,9.9,26.6,7.5c0.8-5.9,3.2-9.9,5.8-12.2c-20.3-2.3-41.6-10.2-41.6-45.2
			c0-9.9,3.5-18.2,9.4-24.6c-0.9-2.3-4.1-11.7,0.9-24.2c0,0,7.7-2.4,25.1,9.4c7.3-2.1,15.1-3.1,22.9-3.1s15.5,1,22.9,3.1
			c17.5-11.9,25.1-9.4,25.1-9.4c5,12.6,1.8,21.9,0.9,24.2c5.8,6.4,9.4,14.5,9.4,24.6c0,35.1-21.4,42.9-41.7,45.2
			c3.3,2.9,6.2,8.3,6.2,16.9c0,12.2-0.1,22.1-0.1,25.2c0,2.4,1.7,5.3,6.3,4.3c36.1-12.1,62.3-46.4,62.3-86.8
			c0-50.5-40.9-91.5-91.4-91.5S21.1,62,21.1,112.6z"/>
	</g>
</g>
</svg>
