<?xml version="1.0" encoding="utf-8"?>
<!-- Generator: Adobe Illustrator 26.0.3, SVG Export Plug-In . SVG Version: 6.00 Build 0)  -->
<svg version="1.1" id="Camada_1" xmlns="http://www.w3.org/2000/svg" xmlns:xlink="http://www.w3.org/1999/xlink" x="0px" y="0px"
	 viewBox="0 0 225 225" style="enable-background:new 0 0 225 225;" xml:space="preserve">
<style type="text/css">
	.st0{fill:#128379;}
	.st1{fill:none;}
	.st2{fill:#FFFFFF;}
</style>
<path class="st0" d="M178.1,225H46.9C21,225,0,204,0,178.1V46.9C0,21,21,0,46.9,0H178c26,0,47,21,47,46.9V178
	C225,204,204,225,178.1,225z"/>
<path class="st1" d="M0,0h225v225H0V0z"/>
<g>
	<path class="st2" d="M197.2,69.3c-0.7-1.9-3-2.8-4.8-2.1c-1.3,0.6-2.2,1.9-2.2,3.3c0,0.4,0,0.9,0.3,1.2c3.4,9.1,5.4,18.9,5.4,29.4
		c0,42.2-31.5,77.2-72.3,82.4v-38.9c2.5-0.4,4.9-1.2,7.3-1.9v32.7c33.2-8.1,58.1-38.2,58.1-74.2c0-28.8-16-54-39.5-66.9
		c-1.8-1-4-0.3-4.9,1.6c-0.3,0.4-0.3,1-0.3,1.6c0,1.3,0.7,2.5,1.8,3.1c21.3,11.8,35.8,34.6,35.8,60.7c0,29.4-18.2,54.4-44,64.6
		v-28.9c4.5-1.3,7.8-5.5,7.8-10.6c0-4.2-2.1-7.6-5.5-9.5c2.5-25,14-18.3,14-26.4v-4.6c0-11.9-27.6-50.8-40.6-51.7h-2.4
		c-13,0.9-40.6,39.8-40.6,51.7v4.6c0,7.9,11.3,1.3,14,26.4c-3.3,1.9-5.4,5.5-5.4,9.5c0,4.9,3.3,9.1,7.8,10.6v28.9
		c-25.6-10.1-44-35.2-44-64.6c0-26.1,14.5-48.9,35.8-60.7c1.6-0.9,2.4-3,1.5-4.8c-0.4-1.3-1.8-2.1-3.1-2.1c-0.6,0-1.2,0.1-1.8,0.4
		c-23.6,13-39.5,38.2-39.5,66.9c0,36.1,24.9,66.2,58.4,74.4v-32.7c2.4,0.7,4.8,1.5,7.3,1.9v38.9c-40.9-5.4-72.3-40.3-72.3-82.6
		c0-10.3,1.9-20.1,5.4-29.4c0.7-1.8-0.1-3.9-1.9-4.6c-0.4-0.1-0.9-0.3-1.3-0.3c-1.5,0-2.8,0.9-3.4,2.4c-3.9,10-6,20.7-6,31.9
		c0,48.8,38.5,88.4,86.8,90.4v-45.8c1.3,0.1,3.7,0.1,3.7,0.1s2.4,0,3.7-0.1v45.8c48.3-1.9,86.8-41.6,86.8-90.4
		C202.9,89.9,200.9,79.1,197.2,69.3z M129.2,120.9c1.3-1.3,3.1-2.2,5.2-2.2c2.1,0,3.9,0.9,5.2,2.2c1.3,1.3,2.2,3.1,2.2,5.2
		c0,2.1-0.9,3.9-2.2,5.2c-1.3,1.3-3.1,2.2-5.2,2.2c-2.1,0-3.9-0.9-5.2-2.2c-1.3-1.3-2.2-3.1-2.2-5.2
		C127,124,127.9,122.2,129.2,120.9L129.2,120.9z M95.8,131.3c-1.3,1.3-3.1,2.2-5.2,2.2c-2.1,0-3.9-0.9-5.2-2.2
		c-1.5-1.3-2.2-3.1-2.2-5.2c0-2.1,0.9-3.9,2.2-5.2c1.3-1.3,3.1-2.2,5.2-2.2c2.1,0,3.9,0.9,5.2,2.2c1.3,1.3,2.2,3.1,2.2,5.2
		C97.9,128.2,97.1,130,95.8,131.3L95.8,131.3z"/>
</g>
</svg>
