<?xml version="1.0" encoding="utf-8"?>
<!-- Generator: Adobe Illustrator 26.0.3, SVG Export Plug-In . SVG Version: 6.00 Build 0)  -->
<svg version="1.1" id="Camada_1" xmlns="http://www.w3.org/2000/svg" xmlns:xlink="http://www.w3.org/1999/xlink" x="0px" y="0px"
	 viewBox="0 0 128 114.9" style="enable-background:new 0 0 128 114.9;" xml:space="preserve">
<style type="text/css">
	.st0{fill:url(#SVGID_1_);}
	.st1{fill:#EDA600;}
</style>
<linearGradient id="SVGID_1_" gradientUnits="userSpaceOnUse" x1="1126.7146" y1="-807.0454" x2="1243.355" y2="-807.0454" gradientTransform="matrix(-1 -2.095300e-03 -2.095300e-03 1 1247.2972 873.4163)">
	<stop  offset="0.3533" style="stop-color:#FFCA28"/>
	<stop  offset="0.8723" style="stop-color:#FFB300"/>
</linearGradient>
<path class="st0" d="M6,54.4c0-1.2,0.8-2.1,1.9-2.4l1.3-0.3c6.4-1.5,12-5.2,16.4-10.8c0.9-1.2,2.1-2.2,3.3-3
	c6.8-4.4,12.9-6.9,18.7-9.3c5.5-2.2,10.7-4.3,16.1-7.9c1.2-0.8,4.5-1.4,7.1-0.5c1.7,0.6,2.8,1.6,3.4,3.1c0.4,1.2,0.6,2.3,0.6,3.4
	c0,3.8-2.8,7.1-9.1,10.7c-6.7,3.9-8.5,4.1-8.6,4.1c-0.8,0-1.4,0.7-1.4,1.5l0,0c0,0.8,0.7,1.5,1.5,1.5l57.1,0.1c2.1,0,8,1.3,8,6.8
	c0,6.6-5.7,8.8-8.3,8.8H94.4c-0.5,0-0.9,0.2-1.2,0.6c-0.2,0.3-0.3,0.6-0.3,0.9c0,0.1,0,0.3,0.1,0.4c0.4,1.4,0.6,2.8,0.6,4.1
	c0,3.8-2,6.3-3.6,7.7c-1.3,1.1-2,2.7-2,4.4c0,0.6,0.1,1.2,0.3,1.8c0.2,0.7,0.4,1.5,0.4,2.3c0,1.3-0.3,2.7-0.9,4.1
	c-0.8,1.9-2.2,3.3-3.3,4.1c-1.1,0.9-3,2.8-3,5c0,0.3,0,0.7,0.1,1c0.1,0.5,0.2,1.1,0.2,1.7c0,2.7-1.4,6.3-5.2,8.1
	c-3.4,1.7-22.5,1.6-28.7,1.6C31.4,108,8,96.6,7.8,96.5c-0.1,0-0.2-0.1-0.3-0.1c-1.1-0.3-1.8-1.3-1.8-2.4L6,54.4z"/>
<g>
	<path class="st1" d="M120.9,51.6c0,6-5.5,7.3-6.8,7.3H94.5c-1,0-1.8,0.5-2.4,1.2c-0.4,0.5-0.6,1.2-0.6,1.8c0,0.3,0,0.6,0.1,0.9
		c0.4,1.3,0.6,2.5,0.6,3.6c0,2.6-1,4.8-3.1,6.5c-1.6,1.4-2.6,3.4-2.6,5.6c0,0.8,0.1,1.5,0.4,2.3c0.2,0.6,0.3,1.2,0.3,1.9
		c0,1.1-0.3,2.3-0.8,3.5c-0.7,1.6-1.9,2.8-2.9,3.6c-1.3,1.1-3.6,3.3-3.6,6.2c0,0.5,0.1,0.9,0.2,1.4c0.1,0.3,0.2,0.8,0.2,1.3
		c0,2.3-1.1,5.3-4.3,6.8c-1.4,0.7-7.5,1.5-28.1,1.4c-16.1,0-39.2-11.2-39.5-11.3c-0.2-0.1-0.3-0.1-0.5-0.2c-0.4-0.1-0.7-0.5-0.7-1
		l0.3-39.7c0-0.5,0.3-0.9,0.8-1l1.3-0.3c6.7-1.6,12.7-5.5,17.3-11.3c0.8-1.1,1.8-2,3-2.7c6.7-4.4,12.7-6.8,18.4-9.1
		c5.6-2.3,10.8-4.4,16.4-8.1c0.7-0.5,3.5-1.1,5.8-0.3c1.7,0.6,2.2,1.5,2.4,2.2c0.4,1.1,0.6,2,0.6,2.9c0,2.1-1,5.1-8.4,9.4
		c-5.7,3.3-7.6,3.9-8,3.9c-1.5,0.1-2.7,1.3-2.8,2.9v0.1c0,1.6,1.2,2.9,2.8,3c0.1,0,0.2,0,0.3,0l57.1,0.1
		C114.4,46.3,120.9,46.5,120.9,51.6 M123.9,51.6c0-6.3-6.3-8.4-9.5-8.4l-57.1-0.1l0,0l0,0c0.2,0,2.1-0.2,9.2-4.3
		c6.7-3.9,9.9-7.6,9.9-12c0-1.2-0.3-2.5-0.7-3.9c-2-5.8-10.3-5.1-12.8-3.4C52,26.8,41.6,28,28.1,36.7c-1.6,1-2.8,2.2-3.7,3.4
		c-4,5-9.3,8.8-15.6,10.2l-1.3,0.3c-1.8,0.4-3.1,2-3.1,3.8L4.1,94.1l0,0c0,1.8,1.2,3.4,2.9,3.8c0,0,23.8,11.6,40.8,11.6
		c11.6,0,26-0.1,29.4-1.7c4.5-2.2,6-6.4,6-9.5c0-0.8-0.1-1.5-0.3-2.1c-0.1-0.2-0.1-0.4-0.1-0.6c0-1.4,1.3-2.9,2.5-3.8
		c1.3-1.1,2.8-2.6,3.8-4.7c0.8-1.8,1-3.3,1-4.7c0-1.1-0.2-2-0.4-2.8c-0.1-0.4-0.2-0.9-0.2-1.3c0-1.2,0.5-2.4,1.5-3.3
		c1.9-1.6,4.1-4.5,4.1-8.8c0-1.3-0.2-2.8-0.7-4.5H114C117.2,61.9,123.9,59.3,123.9,51.6z"/>
	<path class="st1" d="M74.3,59.4l21.2-0.5l-1.7,2.5c0,0.6-0.8,1-1.7,1l-17.8-0.8C72.5,61.4,72.5,59.4,74.3,59.4z"/>
	<path class="st1" d="M49.3,43.2l7-2.8l2.5-0.9l-0.9,3.3l-1,3.2l-7.5-0.1C48,45.9,48.2,43.8,49.3,43.2z"/>
	<path class="st1" d="M73.9,76.5L87,75.7c0.6-0.1,0.3,2.5,0.3,2.5c0,0.6-0.5,1-1.1,1L74,78.4C72.6,78.3,72.7,76.6,73.9,76.5z"/>
	<path class="st1" d="M74.1,93.1l7-0.8c0.3-0.1,0.1,2.5,0.1,2.5c0,0.6-0.3,1-0.6,1L74.1,95C73.4,94.9,73.5,93.2,74.1,93.1z"/>
</g>
</svg>
