<?xml version="1.0" encoding="utf-8"?>
<!-- Generator: Adobe Illustrator 26.0.3, SVG Export Plug-In . SVG Version: 6.00 Build 0)  -->
<svg version="1.1" id="Camada_1" xmlns="http://www.w3.org/2000/svg" xmlns:xlink="http://www.w3.org/1999/xlink" x="0px" y="0px"
	 viewBox="0 0 225 225" style="enable-background:new 0 0 225 225;" xml:space="preserve">
<style type="text/css">
	.st0{fill:#242938;}
	.st1{fill:#65AF68;}
</style>
<path class="st0" d="M178.1,225H46.9C21,225,0,204,0,178.1V46.9C0,21,21,0,46.9,0H178c26,0,47,21,47,46.9V178
	C225,204,204,225,178.1,225z"/>
<g>
	<path class="st1" d="M134.5,73.6c-0.6,32.3-6.5,63.9-14.4,95.1c-1.2,4.9-2.7,9.7-3.9,14.6c-0.3,1-0.6,1.3-1.7,1.4
		c-5.1,0.1-5.1,0.2-6.5-4.7c-6.2-22.1-11.2-44.6-14.3-67.3c-2.3-16.6-3.9-33.3-2.8-50c1.1-17.2,5.6-33.4,15.8-47.7
		c0.7-1,1.4-1.4,2.5-1.3c2.2,0.1,4.4,0.1,6.6,0c1.3-0.1,2.1,0.4,2.8,1.5c7.4,10.6,12.1,22.3,14.1,35.1c1.2,7.8,1.6,15.6,2.4,23.5
		C134.9,73.5,134.7,73.5,134.5,73.6z"/>
	<path class="st1" d="M100.3,14.1c-2.8,2.4-5.9,4.7-8.6,7.4c-9.8,9.6-15.4,21.4-17.9,34.7C71.2,69.8,72,83.5,74.4,97
		c4.4,24.9,13.5,48.3,24.4,71c2.3,4.9,4.9,9.7,7.4,14.5c0.3,0.6,0.6,1.3,0.9,1.9c-0.1,0.2-0.2,0.4-0.4,0.6c-0.9-0.5-2.1-0.7-2.6-1.5
		c-14.5-20.2-27.4-41.3-37.5-64c-5.4-12.1-10-24.5-12.3-37.6c-2.3-13.1-1.5-26,4.3-38.3c5.3-11.3,14-19.4,25-25
		C89.2,15.6,95.3,14,100.3,14.1z"/>
	<path class="st1" d="M118,184.4c0.5-0.9,0.9-1.8,1.3-2.6c10.3-19.4,19.2-39.4,25.6-60.5c4.5-15.1,7.8-30.4,8-46.2
		c0.2-12.7-1.8-24.9-7.3-36.5c-4.5-9.5-11.1-17.2-19.6-23.3c-0.5-0.3-0.9-0.7-1.6-1.2c6.5,0.3,12.4,1.7,18,4.7
		c14.1,7.8,23.8,19,27.8,34.8c2.7,10.6,2.3,21.2,0,31.9c-3.8,17.5-11,33.7-19.1,49.5c-8.7,16.9-18.9,32.9-29.9,48.4
		C120.3,184.6,119.4,184.8,118,184.4z"/>
	<path class="st1" d="M101,183.2c-3.2-3.2-6.4-6.2-9.5-9.5c-16.1-17.1-30-35.8-40.8-56.7c-6.6-12.7-11.6-25.9-13.4-40.2
		c-2.9-22.5,6.9-41.7,26.9-52.4c1.3-0.7,2.6-1.3,4.1-1.6c-1.1,0.8-2.3,1.5-3.4,2.3c-12.8,9.6-19.7,22.4-20.9,38.3
		c-1,12.6,1.6,24.7,5.6,36.5c8.1,23.5,20.9,44.4,36,64c4.6,6,9.8,11.7,14.6,17.5c0.4,0.5,0.8,0.9,1.1,1.4
		C101.2,182.9,101.1,183,101,183.2z"/>
	<path class="st1" d="M123.8,182.9c4.3-5.1,8.8-10.2,12.9-15.4c14.6-18.4,27.1-38.2,36-60.1c5-12.3,8.5-25,8.6-38.3
		c0.1-19.1-7.2-34.5-23.2-45.4c-0.4-0.3-0.7-0.5-1.1-0.8c-0.1-0.1-0.1-0.2,0.1-0.7c3.7,2.3,7.7,4.4,11.2,7
		c16.7,12.5,22.1,29.5,19.2,49.6c-2.3,16.1-8.7,30.7-16.7,44.7c-12.2,21.6-27.4,41-45.3,58.1c-0.5,0.5-1,0.9-1.5,1.4
		C124,183,123.9,182.9,123.8,182.9z"/>
	<path class="st1" d="M112.5,211.5c-2,0-4,0.1-6,0c-3-0.1-4.5-1.7-4.5-4.7c-0.1-3.1-0.1-6.2,0-9.3c0.1-2.9,1.5-4.5,4.4-4.6
		c4.1-0.1,8.3-0.1,12.4,0c2.9,0.1,4.3,1.7,4.3,4.6c0.1,3.1,0.1,6.2,0,9.3c-0.1,3-1.6,4.4-4.6,4.6c-0.1,0-0.3,0-0.4,0
		C116.3,211.5,114.4,211.5,112.5,211.5C112.5,211.5,112.5,211.5,112.5,211.5z"/>
</g>
</svg>
