<?xml version="1.0" encoding="utf-8"?>
<!-- Generator: Adobe Illustrator 26.0.3, SVG Export Plug-In . SVG Version: 6.00 Build 0)  -->
<svg version="1.1" id="Camada_1" xmlns="http://www.w3.org/2000/svg" xmlns:xlink="http://www.w3.org/1999/xlink" x="0px" y="0px"
	 viewBox="0 0 60 60" style="enable-background:new 0 0 60 60;" xml:space="preserve">
<style type="text/css">
	.st0{fill:#242938;}
	.st1{fill:#DD2C00;}
	.st2{fill:#A52005;}
	.st3{fill:#FF3D00;}
	.st4{fill:#FFFFFF;}
</style>
<g transform="">
	<g>
		<g>
			<path id="shape_00000123429826221396281090000015626074979538507150_" class="st0" d="M15,60C6.7,60,0,53.3,0,45V15
				C0,6.7,6.7,0,15,0h30c8.3,0,15,6.7,15,15v30c0,8.3-6.7,15-15,15H15z"/>
		</g>
	</g>
	<g>
		<g transform="scale(5.33333,5.33333)">
			<path class="st1" d="M5.6,10.3L1.2,8.4V2.3l4.5,1.4V10.3z"/>
			<path class="st2" d="M5.6,10.3l4.5-1.9V2.3L5.6,3.7V10.3z"/>
			<path class="st3" d="M1.2,2.3l4.5-1.4l4.5,1.4L5.6,3.7L1.2,2.3z"/>
			<path class="st4" d="M8.6,6.8l0.4-2.9l0.4-0.1L8.8,7.7L8.4,7.8L7.9,5.3l-0.5,3L6.9,8.4L6.3,4.8l0.5-0.2l0.4,2.7l0.5-3.1l0.4-0.1
				L8.6,6.8z M4,7.3c0-0.1,0-0.1,0-0.2c0-0.1,0-0.1-0.1-0.2c0-0.1-0.1-0.1-0.2-0.2C3.6,6.6,3.5,6.5,3.3,6.4C3.2,6.3,3.1,6.2,3,6.1
				C2.9,6,2.8,5.9,2.7,5.8C2.6,5.7,2.5,5.5,2.5,5.4c0-0.1-0.1-0.3-0.1-0.4c0-0.1,0-0.3,0.1-0.4c0-0.1,0.1-0.2,0.2-0.3
				C2.8,4.3,2.9,4.2,3,4.2c0.1,0,0.3,0,0.4,0.1c0.2,0,0.3,0.1,0.4,0.2C4,4.6,4.1,4.7,4.2,4.9C4.3,5,4.3,5.1,4.4,5.3
				c0,0.2,0.1,0.3,0.1,0.5L4,5.6c0-0.1,0-0.2,0-0.3c0-0.1-0.1-0.2-0.1-0.2C3.8,5,3.7,5,3.7,4.9C3.6,4.9,3.5,4.8,3.4,4.8
				c-0.1,0-0.2,0-0.2,0c-0.1,0-0.1,0-0.2,0.1c0,0-0.1,0.1-0.1,0.1c0,0.1,0,0.1,0,0.2c0,0.1,0,0.3,0.1,0.4c0.1,0.1,0.2,0.3,0.5,0.4
				c0.2,0.1,0.3,0.2,0.4,0.3C4,6.4,4.1,6.5,4.2,6.6C4.3,6.8,4.4,6.9,4.4,7c0,0.1,0.1,0.3,0.1,0.4c0,0.2,0,0.3-0.1,0.4
				c0,0.1-0.1,0.2-0.2,0.2C4.1,8.2,4,8.2,3.8,8.2c-0.1,0-0.3,0-0.4-0.1C3.3,8.1,3.2,8,3,7.9C2.9,7.8,2.8,7.7,2.7,7.5
				C2.6,7.4,2.5,7.3,2.4,7.1C2.4,6.9,2.3,6.7,2.3,6.6l0.5,0.2c0,0.1,0,0.2,0,0.3S2.9,7.2,3,7.3c0.1,0.1,0.1,0.1,0.2,0.2
				c0.1,0.1,0.2,0.1,0.2,0.1c0.2,0.1,0.3,0.1,0.4,0C3.9,7.5,4,7.4,4,7.3z"/>
		</g>
	</g>
</g>
</svg>
