<?xml version="1.0" encoding="utf-8"?>
<!-- Generator: Adobe Illustrator 26.0.3, SVG Export Plug-In . SVG Version: 6.00 Build 0)  -->
<svg version="1.1" id="Camada_1" xmlns="http://www.w3.org/2000/svg" xmlns:xlink="http://www.w3.org/1999/xlink" x="0px" y="0px"
	 viewBox="0 0 225 225" style="enable-background:new 0 0 225 225;" xml:space="preserve">
<style type="text/css">
	.st0{fill:#242938;}
	.st1{fill:#FFFFFF;}
</style>
<path class="st0" d="M178.1,225H46.9C21,225,0,204,0,178.1V46.9C0,21,21,0,46.9,0H178c26,0,47,21,47,46.9V178
	C225,204,204,225,178.1,225z"/>
<g>
	<path d="M72.2,200.5c-8.1,0-14-3.2-18.6-9.9c-4.5-6.6-9.6-13-14.5-19.2c-1.6-2.1-3.3-4.1-4.9-6.2c-4.2-5.4-6.2-11.5-6.2-18.7
		C28,124.5,28,102.2,28,80.7c0-10.6,0-21.3,0-31.9c0-12.6,3.3-16.1,16-17.1c8.6-0.7,17.3-1.3,25.9-1.9c21.8-1.6,44.4-3.3,66.5-5.1
		c1.3-0.1,2.6-0.2,3.8-0.2c7.9,0,14.6,2.2,20.7,6.9c8.4,6.4,17.2,12.5,25.8,18.3l4.3,3c4.3,3,6.2,6.7,6.2,12.1
		c-0.2,13.7-0.1,27.6-0.1,41.1c0,5.2,0,10.5,0,15.7v19.8c0,12.2,0,24.3,0,36.5c0,10.9-4.1,15.2-15,15.9c-12.6,0.8-25.2,1.5-37.9,2.3
		c-22.8,1.4-46.4,2.8-69.7,4.3C73.7,200.5,72.9,200.5,72.2,200.5z"/>
	<path class="st1" d="M140.2,26.6c7.1,0,13.4,1.9,19.4,6.4c9.8,7.5,20,14.4,30.2,21.3c3.7,2.6,5.3,5.7,5.2,10.3
		c-0.2,18.9-0.1,37.9-0.1,56.8c0,18.8,0,37.5,0,56.3c0,9.8-3.1,13.2-13,13.8c-35.8,2.2-71.7,4.2-107.5,6.6c-0.7,0.1-1.5,0.1-2.2,0.1
		c-7.2,0-12.5-2.7-16.9-9c-6.1-8.8-12.9-17.1-19.5-25.6c-4-5.1-5.8-10.8-5.8-17.4c0.2-32.5,0.1-65.1,0.1-97.6
		c0-11.4,2.5-14.1,14-14.9c30.8-2.3,61.6-4.5,92.4-7C137.8,26.7,139,26.6,140.2,26.6 M140.2,22.4c-1.3,0-2.6,0.1-4,0.2
		C114,24.4,91.5,26,69.7,27.7c-8.7,0.6-17.3,1.3-26,1.9c-13.7,1-17.9,5.5-17.9,19.2c0,10.6,0,21.3,0,31.9c0,21.5,0,43.8-0.1,65.7
		c0,7.7,2.1,14.2,6.7,20c1.6,2.1,3.3,4.2,4.9,6.2c4.9,6.2,10,12.6,14.5,19.1c5.1,7.4,11.6,10.9,20.4,10.9c0.8,0,1.6,0,2.5-0.1
		c23.2-1.6,46.8-3,69.6-4.3c12.4-0.7,25.3-1.5,37.9-2.3c12.1-0.7,17-6,17-18c0-12.2,0-24.4,0-36.6c0-6.6,0-13.1,0-19.7
		c0-5.3,0-10.5,0-15.8c0-13.4,0-27.4,0.1-41c0.1-6.1-2.2-10.5-7.1-13.9c-1.4-1-2.9-2-4.3-3c-8.5-5.9-17.4-11.9-25.7-18.3
		C155.7,24.8,148.5,22.4,140.2,22.4L140.2,22.4z"/>
	<path d="M64.2,127.9c0,15.9,0,31.8,0,47.7c0,8.1,1.8,10,9.7,9.6c33.7-1.9,67.4-3.9,101.1-6c7-0.4,8.4-1.9,8.4-8.8
		c0-32.3,0-64.7,0-97c0-6.9-1.1-7.8-7.8-7.4c-34.4,2-68.8,4-103.2,5.9c-6.9,0.4-8.1,1.6-8.1,8.3C64.2,96.1,64.2,112,64.2,127.9z"/>
	<path d="M43.2,44.5c5.2,4.1,9.2,7,12.8,10.3c4.9,4.6,10.4,6,17.1,5.5c31.3-2.1,62.7-3.9,94.1-5.8c1.3-0.1,2.5-0.4,5.2-0.8
		c-6-4.3-11.1-7.6-15.7-11.5c-6-5.1-12.7-6.4-20.4-5.8c-28.5,2.3-57,4.3-85.4,6.4C48.9,43,46.9,43.7,43.2,44.5z"/>
	<path class="st1" d="M64.2,127.9c0-15.9,0-31.8,0-47.7c0-6.8,1.3-7.9,8.1-8.3c34.4-2,68.8-3.9,103.2-5.9c6.7-0.4,7.8,0.5,7.8,7.4
		c0.1,32.3,0.1,64.7,0,97c0,7-1.4,8.4-8.4,8.8c-33.7,2-67.4,4-101.1,6c-7.9,0.5-9.7-1.5-9.7-9.6C64.2,159.7,64.2,143.8,64.2,127.9z
		 M103.7,111.1c1.6,2.2,2.4,3.1,3,4.1c9.4,14.8,18.8,29.5,28.3,44.3c1.4,2.2,3,4.5,4.9,6.3c4.6,4.4,9.8,2.6,15.1,1
		c5-1.5,3.8-5.4,3.8-8.7c0-20.6,0.1-41.1,0-61.7c0-3.2,0.2-5.5,4.2-5.8c3.2-0.2,4.6-2.4,3.6-6.4c-7.9,0.5-15.9,0.7-23.8,1.7
		c-1.9,0.2-3.4,3.1-5.8,5.5c4.4,0.9,7.1,1.5,9.5,2c0,14.8,0,29.2,0,44.8c-10.9-16.6-21-32.2-31.3-47.6c-1-1.5-3.2-3.1-4.8-3.1
		c-7.1,0.1-14.3,0.8-21.4,1.3c-4.5,0.3-6.4,2.9-6.3,7.3c3,0.5,5.5,0.9,8.3,1.4c0,21.2,0.1,41.9-0.1,62.7c0,1.3-2,2.7-3.3,3.7
		c-1.8,1.5-3.7,2.7-5.6,4c0.3,0.7,0.6,1.4,0.9,2.1c8.8-0.6,17.7-1,26.5-2c1.8-0.2,3.3-2.7,5.4-4.6c-10.9-4-10.9-4-10.9-15.1
		c0-2,0-3.9,0-5.9C103.7,132.4,103.7,122.5,103.7,111.1z"/>
	<path class="st1" d="M43.2,44.5c3.7-0.8,5.6-1.5,7.6-1.6c28.5-2.2,57-4.1,85.4-6.4c7.7-0.6,14.4,0.7,20.4,5.8
		c4.6,3.9,9.7,7.1,15.7,11.5c-2.6,0.4-3.9,0.7-5.2,0.8c-31.4,1.9-62.7,3.6-94.1,5.8c-6.7,0.5-12.2-1-17.1-5.5
		C52.4,51.5,48.4,48.6,43.2,44.5z"/>
	<path d="M103.7,111.1c0,11.4,0,21.4,0,31.3c0,2,0,3.9,0,5.9c0,11,0,11,10.9,15.1c-2.1,1.8-3.6,4.4-5.4,4.6c-8.8,1-17.6,1.4-26.5,2
		c-0.3-0.7-0.6-1.4-0.9-2.1c1.9-1.3,3.8-2.5,5.6-4c1.3-1.1,3.3-2.5,3.3-3.7C91,139.4,91,118.7,91,97.4c-2.8-0.5-5.3-0.9-8.3-1.4
		c-0.1-4.5,1.7-7,6.3-7.3c7.1-0.5,14.3-1.2,21.4-1.3c1.6,0,3.8,1.6,4.8,3.1c10.3,15.4,20.4,31,31.3,47.6c0-15.6,0-30,0-44.8
		c-2.4-0.5-5.1-1.1-9.5-2c2.5-2.4,4-5.3,5.8-5.5c7.9-1,15.9-1.2,23.8-1.7c1,4-0.4,6.2-3.6,6.4c-4,0.3-4.3,2.6-4.2,5.8
		c0.1,20.6,0.1,41.1,0,61.7c0,3.4,1.2,7.2-3.8,8.7c-5.2,1.6-10.4,3.4-15.1-1c-1.9-1.8-3.5-4.1-4.9-6.3
		c-9.5-14.7-18.8-29.5-28.3-44.3C106,114.2,105.3,113.3,103.7,111.1z"/>
</g>
</svg>
