<?xml version="1.0" encoding="utf-8"?>
<!-- Generator: Adobe Illustrator 26.0.3, SVG Export Plug-In . SVG Version: 6.00 Build 0)  -->
<svg version="1.1" id="Camada_1" xmlns="http://www.w3.org/2000/svg" xmlns:xlink="http://www.w3.org/1999/xlink" x="0px" y="0px"
	 viewBox="0 0 225 225" style="enable-background:new 0 0 225 225;" xml:space="preserve">
<style type="text/css">
	.st0{fill:#242938;}
	.st1{fill:#18D760;}
	.st2{fill:#000100;}
	.st3{fill:#000201;}
</style>
<path class="st0" d="M178.1,225H46.9C21,225,0,204,0,178.1V46.9C0,21,21,0,46.9,0H178c26,0,47,21,47,46.9V178
	C225,204,204,225,178.1,225z"/>
<g>
	<path class="st1" d="M112.6,22.1c49.8,0,90.3,40.6,90.2,90.5c0,49.8-40.7,90.5-90.4,90.3c-49.9-0.2-90.2-40.7-90.1-90.6
		C22.3,62.6,62.9,22.1,112.6,22.1z M50.1,83.4c0,6.1,5.2,10,11.4,8.3c7.3-2,14.7-3.4,22.3-4.1c13-1.2,26-0.9,39,0.9
		c15.3,2.1,30.1,6,43.6,14c1.5,0.9,3.2,1.2,4.9,0.9c3.8-0.6,6.5-3.1,7.2-6.5c0.8-4-0.5-7.6-3.8-9.7c-3.1-2-6.4-3.6-9.8-5.1
		c-19.4-8.6-40-12-61.1-12.7c-8.4-0.3-16.8,0.1-25.1,1.1c-7.5,0.9-15,2.2-22.2,4.4C52.4,76.1,50.1,79.2,50.1,83.4z M166,124.4
		c0-3.7-1.6-6-4.4-7.6c-15.6-9.1-32.5-13.9-50.3-15.7c-9.2-0.9-18.4-0.9-27.6,0c-7.6,0.8-15.1,2.2-22.4,4.5
		c-4.1,1.3-6.1,5.4-4.8,9.4c1.2,3.7,5,5.8,9,4.6c13.4-3.9,27-5.1,40.9-4.1c10.5,0.8,20.7,2.8,30.6,6.2c6.4,2.2,12.4,5.2,18.3,8.5
		C160.4,132.9,166,129.6,166,124.4z M95,129.9c-5.2,0-14.2,1-23.2,2.6c-2.6,0.5-5.3,0.9-7.9,1.7c-3.1,0.9-4.6,4.1-3.7,7.3
		c0.9,3.1,3.6,4.8,6.8,4c7.1-1.7,14.4-2.8,21.7-3.4c9.3-0.8,18.6-0.6,27.9,1c10.4,1.8,20.1,5.4,29.2,10.8c3.1,1.8,6.4,1.2,8.1-1.5
		c1.8-2.7,0.9-6.6-1.9-8.5c-0.9-0.6-1.8-1.1-2.7-1.7C133.6,133.5,116.7,130,95,129.9z"/>
	<path class="st2" d="M50.1,83.4c0-4.2,2.3-7.3,6.3-8.5c7.2-2.2,14.7-3.6,22.2-4.4c8.3-1,16.7-1.3,25.1-1.1
		c21.1,0.6,41.6,4.1,61.1,12.7c3.4,1.5,6.7,3.1,9.8,5.1c3.3,2.1,4.6,5.7,3.8,9.7c-0.7,3.5-3.5,5.9-7.2,6.5c-1.7,0.3-3.4-0.1-4.9-0.9
		c-13.5-7.9-28.3-11.8-43.6-14c-12.9-1.8-26-2.1-39-0.9c-7.6,0.7-15,2.1-22.3,4.1C55.3,93.4,50.1,89.5,50.1,83.4z"/>
	<path class="st2" d="M166,124.4c-0.1,5.2-5.6,8.6-10.6,5.8c-5.9-3.3-11.9-6.3-18.3-8.5c-9.9-3.4-20.1-5.5-30.6-6.2
		c-13.9-1-27.5,0.2-40.9,4.1c-4,1.2-7.9-0.9-9-4.6c-1.3-4.1,0.7-8.2,4.8-9.4c7.3-2.2,14.8-3.7,22.4-4.5c9.2-0.9,18.4-0.9,27.6,0
		c17.8,1.8,34.7,6.6,50.3,15.7C164.4,118.4,166,120.7,166,124.4z"/>
	<path class="st3" d="M95,129.9c21.7,0,38.6,3.6,54.2,12.4c0.9,0.5,1.8,1.1,2.7,1.7c2.8,2,3.6,5.8,1.9,8.5c-1.7,2.7-5,3.3-8.1,1.5
		c-9.1-5.4-18.8-9-29.2-10.8c-9.3-1.6-18.5-1.8-27.9-1c-7.3,0.6-14.5,1.7-21.7,3.4c-3.2,0.8-5.9-0.9-6.8-4c-0.9-3.2,0.6-6.4,3.7-7.3
		c2.6-0.8,5.2-1.2,7.9-1.7C80.8,130.9,89.8,129.9,95,129.9z"/>
</g>
</svg>
