<?xml version="1.0" encoding="utf-8"?>
<!-- Generator: Adobe Illustrator 26.0.3, SVG Export Plug-In . SVG Version: 6.00 Build 0)  -->
<svg version="1.1" id="Camada_1" xmlns="http://www.w3.org/2000/svg" xmlns:xlink="http://www.w3.org/1999/xlink" x="0px" y="0px"
	 viewBox="0 0 60 60" style="enable-background:new 0 0 60 60;" xml:space="preserve">
<style type="text/css">
	.st0{fill:url(#shape_00000065773968437681249630000005590879204431613086_);}
	.st1{fill:#020203;}
	.st2{fill:#6F7C82;}
	.st3{fill:#34485D;}
	.st4{fill:#4D7CB7;}
	.st5{fill:#5C9AEA;}
	.st6{fill:#A3ADB5;}
	.st7{fill:#020202;}
	.st8{fill:#010102;}
	.st9{fill:#010101;}
	.st10{fill:#6E7A80;}
</style>
<g>
	<g>
		
			<radialGradient id="shape_00000095323876160821325720000006586727307414925202_" cx="30" cy="30" r="30" gradientUnits="userSpaceOnUse">
			<stop  offset="0" style="stop-color:#5D6066"/>
			<stop  offset="1" style="stop-color:#242938"/>
		</radialGradient>
		
			<path id="shape_00000123429826221396281090000015626074979538507150_" style="fill:url(#shape_00000095323876160821325720000006586727307414925202_);" d="
			M15,60C6.7,60,0,53.3,0,45V15C0,6.7,6.7,0,15,0h30c8.3,0,15,6.7,15,15v30c0,8.3-6.7,15-15,15H15z"/>
	</g>
</g>
<g>
	<path class="st1" d="M46.7,16.8c1.3,0,2.4,0,3.5,0c2.6,0,4.5,1.8,4.5,4.5c0,8.8,0,17.7,0,26.5c0,2.6-1.8,4.5-4.5,4.5
		c-13.5,0-26.9,0-40.4,0c-2.6,0-4.5-1.8-4.5-4.4c0-8.9,0-17.8,0-26.7c0-2.6,1.8-4.4,4.5-4.4c9.2,0,18.4,0,27.6,0
		c0.4,0,0.7-0.1,0.9-0.4c2.6-2.6,5.1-5.2,7.7-7.7c1.5-1.5,3.9-1.2,4.9,0.7c0.7,1.2,0.5,2.7-0.6,3.7C49.2,14.3,48,15.5,46.7,16.8z
		 M16.7,47.2c11,0,21.9,0,32.8,0c0-8.5,0-16.9,0-25.3c-2.5,0-4.9,0-7.3,0c-0.4,0-0.7,0.1-0.9,0.4c-3.1,3.1-6.2,6.2-9.3,9.3
		c-0.6,0.6-1.1,1.4-2.2,1.2c0,0-0.1,0-0.1,0c-1.3,0.3-2.6,0.7-3.8,1c-0.6,0.1-0.9-0.2-0.8-0.8c0.1-0.3,0.2-0.6,0.3-0.9
		c0.3-1,0.8-2,0.9-3c0.1-0.7,0.5-1.2,1-1.6c1.7-1.7,3.4-3.4,5.1-5.1c0.1-0.1,0.3-0.3,0.4-0.5c-5.4,0-10.8,0-16.1,0
		C16.7,30.3,16.7,38.7,16.7,47.2z M42.8,20.7c2.4,0,4.6,0,6.9,0c0.9,0,1,0.1,1,1c0,8.5,0,17.1,0,25.6c0,0.9-0.1,1-1,1
		c-11.1,0-22.1,0-33.2,0c-0.9,0-1-0.1-1-1c0-8.5,0-17.1,0-25.6c0-0.9,0.1-1,1-1c5.6,0,11.2,0,16.8,0c0.4,0,0.7-0.1,1-0.4
		c0.6-0.7,1.3-1.3,2-2c0.1-0.1,0.2-0.2,0.3-0.4c-0.3,0-0.5,0-0.7,0c-6.4,0-12.7,0-19.1,0c-2.4,0-4.9,0-7.3,0c-1.7,0-3.1,1.4-3.1,3
		c0,9.1,0,18.1,0,27.2c0,0.4,0.1,0.8,0.2,1.1c0.6,1.3,1.6,1.9,3,1.9c13.4,0,26.8,0,40.2,0c2.3,0,3.6-1.3,3.6-3.6c0-3.9,0-7.8,0-11.6
		c0-4.9,0-9.8,0-14.6c0-2-1.3-3.3-3.3-3.3c-1.4,0-2.8,0-4.2,0c-0.2,0-0.4,0-0.6,0.2C44.6,18.9,43.7,19.8,42.8,20.7z M41.2,20.7
		C41.2,20.7,41.2,20.7,41.2,20.7c2.8-2.8,5.6-5.6,8.4-8.4c0.5-0.5,0.7-1.1,0.5-1.8C50,9.7,49.6,9.2,48.8,9c-0.8-0.2-1.4,0-2,0.5
		c-2.7,2.7-5.5,5.5-8.2,8.2c-0.1,0.1-0.1,0.2-0.2,0.2C39.4,18.8,40.3,19.7,41.2,20.7z M40.2,21.6c-0.9-0.9-1.8-1.8-2.7-2.7
		c-3.1,3.1-6.3,6.3-9.4,9.4c0.9,0.9,1.8,1.8,2.7,2.7C34,27.9,37.1,24.7,40.2,21.6z M29.6,31.6c-0.7-0.7-1.4-1.5-2.2-2.2
		c-0.3,1-0.6,1.9-0.9,3C27.6,32.2,28.6,31.9,29.6,31.6z"/>
	<path class="st2" d="M16.7,47.2c0-8.5,0-16.9,0-25.3c5.4,0,10.7,0,16.1,0c-0.2,0.2-0.3,0.3-0.4,0.5c-1.7,1.7-3.4,3.4-5.1,5.1
		c-0.5,0.5-0.8,0.9-1,1.6c-0.1,1-0.6,2-0.9,3c-0.1,0.3-0.2,0.6-0.3,0.9c-0.2,0.6,0.2,0.9,0.8,0.8c1.3-0.3,2.6-0.7,3.8-1
		c0,0,0.1,0,0.1,0c1,0.1,1.5-0.6,2.2-1.2c3.1-3.1,6.2-6.2,9.3-9.3c0.3-0.3,0.5-0.4,0.9-0.4c2.4,0,4.8,0,7.3,0c0,8.5,0,16.9,0,25.3
		C38.6,47.2,27.7,47.2,16.7,47.2z"/>
	<path class="st3" d="M42.8,20.7c1-1,1.8-1.8,2.6-2.6c0.1-0.1,0.4-0.2,0.6-0.2c1.4,0,2.8,0,4.2,0c2,0,3.3,1.4,3.3,3.3
		c0,4.9,0,9.8,0,14.6c0,3.9,0,7.8,0,11.6c0,2.3-1.3,3.6-3.6,3.6c-13.4,0-26.8,0-40.2,0c-1.4,0-2.4-0.6-3-1.9
		c-0.2-0.3-0.2-0.8-0.2-1.1c0-9.1,0-18.1,0-27.2c0-1.7,1.4-3,3.1-3c2.4,0,4.9,0,7.3,0c6.4,0,12.7,0,19.1,0c0.2,0,0.4,0,0.7,0
		c-0.1,0.2-0.2,0.3-0.3,0.4c-0.7,0.7-1.3,1.3-2,2c-0.3,0.3-0.6,0.4-1,0.4c-5.6,0-11.2,0-16.8,0c-0.9,0-1,0.1-1,1
		c0,8.5,0,17.1,0,25.6c0,0.9,0.1,1,1,1c11.1,0,22.1,0,33.2,0c0.9,0,1-0.1,1-1c0-8.5,0-17.1,0-25.6c0-0.9-0.1-1-1-1
		C47.4,20.7,45.2,20.7,42.8,20.7z M13.3,34.5c0-1.3-1-2.3-2.3-2.3c-1.3,0-2.3,1-2.3,2.3c0,1.3,1,2.3,2.3,2.3
		C12.4,36.8,13.3,35.8,13.3,34.5z M11,24.4c0.5,0,1,0,1.6,0c0.4,0,0.6-0.1,0.6-0.5c0-0.4-0.2-0.6-0.6-0.6c-1.1,0-2.1,0-3.2,0
		c-0.3,0-0.6,0.2-0.6,0.6c0,0.4,0.3,0.5,0.6,0.5C10,24.4,10.5,24.4,11,24.4z M11,28.7c0.5,0,1.1,0,1.6,0c0.4,0,0.6-0.2,0.6-0.6
		c0-0.4-0.3-0.6-0.6-0.6c-1,0-2.1,0-3.1,0c-0.4,0-0.7,0.1-0.6,0.6c0,0.4,0.3,0.5,0.6,0.5C10,28.6,10.5,28.7,11,28.7z M11,40.4
		c-0.5,0-1.1,0-1.6,0c-0.2,0-0.5,0.3-0.5,0.5c-0.1,0.3,0.1,0.6,0.5,0.6c1.1,0,2.2,0,3.3,0c0.3,0,0.6-0.2,0.5-0.6
		c0-0.4-0.2-0.5-0.6-0.5C12.1,40.4,11.6,40.4,11,40.4z M11,45.7c0.5,0,1,0,1.6,0c0.4,0,0.7-0.1,0.7-0.6c0-0.4-0.3-0.5-0.7-0.5
		c-1,0-2,0-3,0c-0.4,0-0.7,0.1-0.7,0.5c0,0.5,0.3,0.6,0.7,0.6C10,45.8,10.5,45.7,11,45.7z"/>
	<path class="st4" d="M41.2,20.7c-0.9-0.9-1.8-1.8-2.8-2.7c0,0,0.1-0.1,0.2-0.2c2.7-2.7,5.5-5.5,8.2-8.2c0.6-0.6,1.2-0.8,2-0.5
		c0.7,0.2,1.2,0.7,1.4,1.5c0.2,0.7-0.1,1.3-0.5,1.8C46.9,15.1,44.1,17.8,41.2,20.7C41.2,20.7,41.2,20.7,41.2,20.7z"/>
	<path class="st5" d="M40.2,21.6c-3.1,3.1-6.3,6.2-9.4,9.4c-0.9-0.9-1.8-1.8-2.7-2.7c3.1-3.1,6.2-6.2,9.4-9.4
		C38.4,19.8,39.3,20.7,40.2,21.6z"/>
	<path class="st6" d="M29.6,31.6c-1,0.3-2,0.5-3.1,0.8c0.3-1.1,0.6-2,0.9-3C28.2,30.2,28.9,30.9,29.6,31.6z"/>
	<path class="st7" d="M13.3,34.5c0,1.4-1,2.3-2.3,2.3c-1.3,0-2.3-1-2.3-2.3c0-1.3,1-2.3,2.3-2.3C12.4,32.2,13.3,33.2,13.3,34.5z
		 M11,35.7c0.7,0,1.2-0.5,1.2-1.2c0-0.7-0.5-1.2-1.2-1.2c-0.7,0-1.2,0.5-1.2,1.2C9.8,35.2,10.3,35.7,11,35.7z"/>
	<path class="st1" d="M11,24.4c-0.5,0-1,0-1.6,0c-0.4,0-0.6-0.1-0.6-0.5c0-0.4,0.3-0.6,0.6-0.6c1.1,0,2.1,0,3.2,0
		c0.4,0,0.6,0.2,0.6,0.6c0,0.4-0.3,0.5-0.6,0.5C12.1,24.4,11.5,24.4,11,24.4z"/>
	<path class="st8" d="M11,28.7c-0.5,0-1,0-1.5,0c-0.4,0-0.6-0.1-0.6-0.5c0-0.4,0.3-0.6,0.6-0.6c1,0,2.1,0,3.1,0
		c0.4,0,0.6,0.1,0.6,0.6c0,0.4-0.2,0.6-0.6,0.6C12.1,28.6,11.5,28.7,11,28.7z"/>
	<path class="st9" d="M11,40.4c0.5,0,1.1,0,1.6,0c0.4,0,0.6,0.2,0.6,0.5c0,0.4-0.2,0.6-0.5,0.6c-1.1,0-2.2,0-3.3,0
		c-0.3,0-0.6-0.3-0.5-0.6c0.1-0.2,0.3-0.5,0.5-0.5C9.9,40.3,10.5,40.4,11,40.4z"/>
	<path class="st1" d="M11,45.7c-0.5,0-1,0-1.5,0c-0.4,0-0.7-0.1-0.7-0.6c0-0.4,0.3-0.5,0.7-0.5c1,0,2,0,3,0c0.4,0,0.7,0.1,0.7,0.5
		c0,0.4-0.3,0.6-0.7,0.6C12,45.8,11.5,45.7,11,45.7z"/>
	<path class="st10" d="M11,35.7c-0.7,0-1.2-0.5-1.2-1.2c0-0.7,0.5-1.2,1.2-1.2c0.7,0,1.2,0.5,1.2,1.2C12.2,35.2,11.7,35.7,11,35.7z"
		/>
</g>
</svg>
